<?xml version="1.0" standalone="no"?>
<!DOCTYPE svg PUBLIC "-//W3C//DTD SVG 20010904//EN"
 "http://www.w3.org/TR/2001/REC-SVG-20010904/DTD/svg10.dtd">
<svg version="1.0" xmlns="http://www.w3.org/2000/svg"
 width="500.000000pt" height="500.000000pt" viewBox="0 0 500.000000 500.000000"
 preserveAspectRatio="xMidYMid meet">
<metadata>
Created by potrace 1.11, written by Peter Selinger 2001-2013
</metadata>
<g transform="translate(0.000000,500.000000) scale(0.100000,-0.100000)"
fill="#000000" stroke="none">
<path d="M1060 2498 l0 -788 105 0 105 0 0 313 0 313 143 -2 c78 -1 145 -2
148 -3 4 0 40 -40 80 -88 41 -49 76 -90 79 -93 6 -6 101 -120 115 -138 5 -7
17 -21 26 -30 8 -9 51 -60 94 -112 44 -52 84 -98 90 -102 5 -4 6 -8 2 -8 -5 0
5 -11 22 -25 29 -25 33 -26 161 -23 l131 3 -33 36 c-18 20 -48 55 -66 77 -19
23 -44 52 -55 65 -12 13 -42 47 -67 77 -25 29 -49 58 -55 64 -5 6 -34 40 -64
76 -30 36 -60 70 -66 75 -6 6 -33 37 -61 70 -58 70 -94 113 -111 130 -9 9 2
19 51 45 35 17 83 51 108 75 52 48 110 129 101 139 -4 3 0 6 7 6 7 0 10 3 7 6
-3 4 -2 14 3 24 17 31 23 74 25 175 1 55 -2 106 -7 113 -6 6 -8 12 -4 12 7 0
-24 79 -39 99 -87 114 -202 178 -350 196 -33 4 -187 9 -342 10 l-283 2 0 -789z
m620 589 c128 -38 192 -120 191 -244 -2 -122 -22 -176 -91 -243 -69 -68 -125
-83 -337 -88 l-173 -4 0 294 c0 162 2 297 5 299 2 3 82 4 177 3 127 -1 188 -5
228 -17z"/>
<path d="M2565 3248 c1 -21 -2 -41 -7 -44 -4 -3 -5 -11 -1 -17 12 -19 11 -77
-1 -77 -8 0 -8 -3 -1 -8 6 -4 11 -25 11 -47 0 -22 -5 -43 -11 -47 -7 -5 -7 -8
0 -8 6 0 11 -16 11 -35 0 -19 -5 -35 -11 -35 -7 0 -7 -3 0 -8 6 -4 11 -20 11
-37 0 -16 -5 -33 -11 -37 -7 -5 -7 -8 0 -8 6 0 11 -16 11 -35 0 -19 -5 -35
-11 -35 -7 0 -7 -3 0 -8 6 -4 11 -20 11 -37 0 -16 -5 -33 -11 -37 -7 -5 -7 -8
0 -8 6 0 11 -16 11 -35 0 -19 -5 -35 -11 -35 -7 0 -7 -3 0 -8 6 -4 11 -20 11
-37 0 -16 -5 -33 -11 -37 -7 -5 -7 -8 0 -8 6 0 11 -16 11 -35 0 -19 -4 -35 -8
-35 -4 0 -4 -10 1 -22 4 -13 6 -32 4 -43 -2 -11 -4 -26 -3 -32 0 -11 0 -48 0
-118 0 -8 0 -28 0 -45 0 -16 0 -36 0 -42 0 -7 1 -24 3 -38 2 -14 -1 -31 -6
-37 -6 -8 -6 -13 0 -13 5 0 8 -19 6 -42 -2 -24 -3 -49 -3 -55 0 -7 0 -26 0
-43 0 -16 0 -37 0 -45 0 -8 0 -28 0 -45 0 -16 0 -37 0 -45 0 -8 1 -28 2 -45
l2 -30 103 0 c75 0 103 3 104 13 0 6 2 179 2 382 l2 370 390 3 390 2 -1 -385
0 -386 105 3 106 3 0 785 0 785 -105 0 -105 0 0 -305 -1 -305 -390 -3 -390 -2
1 292 c0 161 -1 300 -3 309 -3 13 -20 16 -106 15 l-103 0 2 -38z"/>
</g>
</svg>
